<mxfile host="app.diagrams.net" modified="2024-03-20T17:31:20.286Z" agent="Mozilla/5.0 (Windows NT 10.0; Win64; x64) AppleWebKit/537.36 (KHTML, like Gecko) Chrome/122.0.0.0 Safari/537.36" version="24.0.7" etag="LORa13rx3FR4UW4BBIbq" type="github">
  <diagram name="第 1 页" id="TEpZbvpqCbOO_t3ZzMfF">
    <mxGraphModel>
      <root>
        <mxCell id="0" />
        <mxCell id="1" parent="0" />
      </root>
    </mxGraphModel>
  </diagram>
</mxfile>
